<svg width="15" height="16" viewBox="0 0 15 16" fill="none" xmlns="http://www.w3.org/2000/svg">
<g clip-path="url(#clip0_52919_159)">
<path d="M5.5625 3.5C5.5625 2.39688 6.45938 1.5 7.5625 1.5C8.66562 1.5 9.5625 2.39688 9.5625 3.5V5H5.5625V3.5ZM4.0625 5H2.0625C1.23438 5 0.5625 5.67188 0.5625 6.5V13C0.5625 14.6562 1.90625 16 3.5625 16H11.5625C13.2188 16 14.5625 14.6562 14.5625 13V6.5C14.5625 5.67188 13.8906 5 13.0625 5H11.0625V3.5C11.0625 1.56562 9.49688 0 7.5625 0C5.62812 0 4.0625 1.56562 4.0625 3.5V5ZM4.8125 6.5C5.01141 6.5 5.20218 6.57902 5.34283 6.71967C5.48348 6.86032 5.5625 7.05109 5.5625 7.25C5.5625 7.44891 5.48348 7.63968 5.34283 7.78033C5.20218 7.92098 5.01141 8 4.8125 8C4.61359 8 4.42282 7.92098 4.28217 7.78033C4.14152 7.63968 4.0625 7.44891 4.0625 7.25C4.0625 7.05109 4.14152 6.86032 4.28217 6.71967C4.42282 6.57902 4.61359 6.5 4.8125 6.5ZM9.5625 7.25C9.5625 7.05109 9.64152 6.86032 9.78217 6.71967C9.92282 6.57902 10.1136 6.5 10.3125 6.5C10.5114 6.5 10.7022 6.57902 10.8428 6.71967C10.9835 6.86032 11.0625 7.05109 11.0625 7.25C11.0625 7.44891 10.9835 7.63968 10.8428 7.78033C10.7022 7.92098 10.5114 8 10.3125 8C10.1136 8 9.92282 7.92098 9.78217 7.78033C9.64152 7.63968 9.5625 7.44891 9.5625 7.25Z" fill="currentColor"/>
</g>
<defs>
<clipPath id="clip0_52919_159">
<path d="M0.5625 0H14.5625V16H0.5625V0Z" fill="white"/>
</clipPath>
</defs>
</svg>
