<svg width="17" height="16" viewBox="0 0 17 16" fill="none" xmlns="http://www.w3.org/2000/svg">
<g clip-path="url(#clip0_52919_154)">
<path d="M2.31562 9.38742L7.9625 14.6593C8.19688 14.878 8.50625 14.9999 8.82812 14.9999C9.15 14.9999 9.45938 14.878 9.69375 14.6593L15.3406 9.38742C16.2906 8.50305 16.8281 7.26242 16.8281 5.96555V5.7843C16.8281 3.59992 15.25 1.73742 13.0969 1.37805C11.6719 1.14055 10.2219 1.60617 9.20312 2.62492L8.82812 2.99992L8.45312 2.62492C7.43438 1.60617 5.98438 1.14055 4.55938 1.37805C2.40625 1.73742 0.828125 3.59992 0.828125 5.7843V5.96555C0.828125 7.26242 1.36562 8.50305 2.31562 9.38742Z" fill="currentColor"/>
</g>
<defs>
<clipPath id="clip0_52919_154">
<path d="M0.828125 0H16.8281V16H0.828125V0Z" fill="white"/>
</clipPath>
</defs>
</svg>
