<svg width="20" height="20" viewBox="0 0 20 20" fill="none" xmlns="http://www.w3.org/2000/svg">
<path d="M20 20H0V0H20V20Z" stroke="none"/>
<path d="M8.82031 18.2889L8.72266 18.1991L1.87891 11.8436C0.679687 10.7304 0 9.16785 0 7.53114V7.40223C0 4.65223 1.95312 2.29285 4.65625 1.77723C6.19531 1.48035 7.76953 1.83582 9.02344 2.71864C9.375 2.96864 9.70313 3.2577 10 3.58973C10.1641 3.40223 10.3398 3.23035 10.5273 3.0702C10.6719 2.9452 10.8203 2.82801 10.9766 2.71864C12.2305 1.83582 13.8047 1.48035 15.3437 1.77332C18.0469 2.28895 20 4.65223 20 7.40223V7.53114C20 9.16785 19.3203 10.7304 18.1211 11.8436L11.2773 18.1991L11.1797 18.2889C10.8594 18.5858 10.4375 18.7538 10 18.7538C9.5625 18.7538 9.14063 18.5897 8.82031 18.2889ZM9.33984 5.66395C9.32422 5.65223 9.3125 5.6366 9.30078 5.62098L8.60547 4.83973L8.60156 4.83582C7.69922 3.82411 6.33594 3.36317 5.00781 3.61707C3.1875 3.96473 1.875 5.55067 1.875 7.40223V7.53114C1.875 8.64442 2.33984 9.71082 3.15625 10.4686L10 16.8241L16.8438 10.4686C17.6602 9.71082 18.125 8.64442 18.125 7.53114V7.40223C18.125 5.55457 16.8125 3.96473 14.9961 3.61707C13.668 3.36317 12.3008 3.82801 11.4023 4.83582C11.4023 4.83582 11.4023 4.83582 11.3984 4.83973C11.3945 4.84364 11.3984 4.83973 11.3945 4.84364L10.6992 5.62489C10.6875 5.64051 10.6719 5.65223 10.6602 5.66786C10.4844 5.84364 10.2461 5.94129 10 5.94129C9.75391 5.94129 9.51563 5.84364 9.33984 5.66786V5.66395Z" fill="currentColor"/>
</svg>
