<svg width="19" height="16" viewBox="0 0 19 16" fill="none" xmlns="http://www.w3.org/2000/svg">
<g clip-path="url(#clip0_52919_149)">
<path d="M18.4 7.98438C18.4 8.54688 17.9312 8.9875 17.4 8.9875H16.4L16.4219 13.9937C16.4219 14.0781 16.4156 14.1625 16.4062 14.2469V14.75C16.4062 15.4406 15.8469 16 15.1562 16H14.6562C14.6219 16 14.5875 16 14.5531 15.9969C14.5094 16 14.4656 16 14.4219 16H13.4062H12.6562C11.9656 16 11.4062 15.4406 11.4062 14.75V14V12C11.4062 11.4469 10.9594 11 10.4062 11H8.40625C7.85312 11 7.40625 11.4469 7.40625 12V14V14.75C7.40625 15.4406 6.84688 16 6.15625 16H5.40625H4.40938C4.3625 16 4.31562 15.9969 4.26875 15.9937C4.23125 15.9969 4.19375 16 4.15625 16H3.65625C2.96562 16 2.40625 15.4406 2.40625 14.75V11.25C2.40625 11.2219 2.40625 11.1906 2.40937 11.1625V8.9875H1.40625C0.84375 8.9875 0.40625 8.55 0.40625 7.98438C0.40625 7.70312 0.5 7.45312 0.71875 7.23438L8.73125 0.25C8.95 0.03125 9.2 0 9.41875 0C9.6375 0 9.8875 0.0625 10.075 0.21875L18.0562 7.23438C18.3062 7.45312 18.4312 7.70312 18.4 7.98438Z" fill="currentColor"/>
</g>
<defs>
<clipPath id="clip0_52919_149">
<path d="M0.40625 0H18.4062V16H0.40625V0Z" fill="white"/>
</clipPath>
</defs>
</svg>
