<svg width="15" height="12" viewBox="0 0 15 12" fill="none" xmlns="http://www.w3.org/2000/svg">
<g clip-path="url(#clip0_52919_207)">
<path d="M7.94302 0.421875C7.8188 0.164062 7.5563 0 7.26802 0C6.97974 0 6.71958 0.164062 6.59302 0.421875L5.08599 3.52266L1.72037 4.01953C1.43912 4.06172 1.20474 4.25859 1.11802 4.52812C1.0313 4.79766 1.10162 5.09531 1.30318 5.29453L3.74537 7.71094L3.1688 11.1258C3.12193 11.407 3.23912 11.693 3.47115 11.8594C3.70318 12.0258 4.01021 12.0469 4.26333 11.9133L7.27037 10.3078L10.2774 11.9133C10.5305 12.0469 10.8376 12.0281 11.0696 11.8594C11.3016 11.6906 11.4188 11.407 11.3719 11.1258L10.793 7.71094L13.2352 5.29453C13.4368 5.09531 13.5094 4.79766 13.4204 4.52812C13.3313 4.25859 13.0993 4.06172 12.818 4.01953L9.45005 3.52266L7.94302 0.421875Z" fill="currentColor"/>
</g>
<defs>
<clipPath id="clip0_52919_207">
<path d="M0.515625 0H14.0156V12H0.515625V0Z" fill="white"/>
</clipPath>
</defs>
</svg>
